# xmcd CD database file
# Copyright (C) 1993-1998 Ti Kan
# 
# Track frame offsets:
#     183
#     12113
#     25258
#     39123
#     50220
#     64925
#     79165
#     92705
#     105345
#     116830
#     130023
#     141718
#     154078
#     167023
#     180585
#     192283
#     205688
#     216523
#     227525
#     239703
# 
# Disc length: 3428 seconds
# 
# Revision: 1
# Processed by: cddbd v1.4b41PL1 Copyright (c) Steve Scherf et al.
# Submitted via: DiscPlay 4.0.4
# 
DISCID=180d6214
DTITLE=Sam and Dave - Soul man
DYEAR=1900
DGENRE=
TTITLE0=Hold on I'm coming
TTITLE1=Soul man
TTITLE2=Summertime
TTITLE3=You don't know what you mean to me
TTITLE4=When something is wrong with with my baby
TTITLE5=You send me
TTITLE6=Wounderful world
TTITLE7=Said i wouldn't tell nobody
TTITLE8=Can't you find another way of doing it baby
TTITLE9=I thank you
TTITLE10=Soul sister, Brown sugar
TTITLE11=Dock of the bay
TTITLE12=You got me hummin'
TTITLE13=Don't pull your love out
TTITLE14=Soothe me
TTITLE15=Gimme some lovin'
TTITLE16=Bring it on home
TTITLE17=Another saturday night
TTITLE18=You don't know me like i know
TTITLE19=Cupid
EXTD=
EXTT0=
EXTT1=
EXTT2=
EXTT3=
EXTT4=
EXTT5=
EXTT6=
EXTT7=
EXTT8=
EXTT9=
EXTT10=
EXTT11=
EXTT12=
EXTT13=
EXTT14=
EXTT15=
EXTT16=
EXTT17=
EXTT18=
EXTT19=
PLAYORDER=
